<svg width="24" height="25" viewBox="0 0 24 25" fill="none" xmlns="http://www.w3.org/2000/svg">
<path fill-rule="evenodd" clip-rule="evenodd" d="M11.998 21.5V21.5C7.029 21.5 3 17.471 3 12.502V12.498C3 7.529 7.029 3.5 11.998 3.5H12.002C16.971 3.5 21 7.529 21 12.498V12.498C21 17.47 16.97 21.5 11.998 21.5Z" stroke="#191C5A" stroke-width="1.5" stroke-linecap="round" stroke-linejoin="round"/>
<path d="M17.489 12L15.989 10.5L14.489 12" stroke="#191C5A" stroke-width="1.5" stroke-linecap="round" stroke-linejoin="round"/>
<path d="M6.5 13L8 14.5L9.5 13" stroke="#191C5A" stroke-width="1.5" stroke-linecap="round" stroke-linejoin="round"/>
<path d="M8 14.5V10.5C8 9.395 8.895 8.5 10 8.5H13" stroke="#191C5A" stroke-width="1.5" stroke-linecap="round" stroke-linejoin="round"/>
<path d="M15.989 10.5V14.5C15.989 15.6 15.089 16.5 13.989 16.5H11" stroke="#191C5A" stroke-width="1.5" stroke-linecap="round" stroke-linejoin="round"/>
</svg>
