<svg width="20" height="20" viewBox="0 0 20 20" fill="none" xmlns="http://www.w3.org/2000/svg">
<path fill-rule="evenodd" clip-rule="evenodd" d="M10 5.24854C10.4142 5.24854 10.75 5.58432 10.75 5.99854V13.9985C10.75 14.4127 10.4142 14.7485 10 14.7485C9.58579 14.7485 9.25 14.4127 9.25 13.9985V5.99854C9.25 5.58432 9.58579 5.24854 10 5.24854Z" fill="#191C5A"/>
<path fill-rule="evenodd" clip-rule="evenodd" d="M5.25 9.99951C5.25 9.5853 5.58579 9.24951 6 9.24951H14C14.4142 9.24951 14.75 9.5853 14.75 9.99951C14.75 10.4137 14.4142 10.7495 14 10.7495H6C5.58579 10.7495 5.25 10.4137 5.25 9.99951Z" fill="#191C5A"/>
<path fill-rule="evenodd" clip-rule="evenodd" d="M10 1.74951C5.44321 1.74951 1.75 5.44273 1.75 9.99951C1.75 14.5563 5.44321 18.2495 10 18.2495C14.5568 18.2495 18.25 14.5563 18.25 9.99951C18.25 5.44273 14.5568 1.74951 10 1.74951ZM0.25 9.99951C0.25 4.6143 4.61479 0.249512 10 0.249512C15.3852 0.249512 19.75 4.6143 19.75 9.99951C19.75 15.3847 15.3852 19.7495 10 19.7495C4.61479 19.7495 0.25 15.3847 0.25 9.99951Z" fill="#191C5A"/>
</svg>
